<svg width="16" height="16" viewBox="0 0 16 16" fill="none" xmlns="http://www.w3.org/2000/svg">
<g id="Frame">
<path id="Vector" fill-rule="evenodd" clip-rule="evenodd" d="M8.00002 0.666748C9.60002 0.666748 11.2667 1.26675 12.4667 2.53341C14.9334 5.00008 14.9334 9.06675 12.4667 11.4667L8.00002 16.0001L3.53335 11.5334C1.06668 9.06675 1.06668 5.00008 3.53335 2.53341C4.73335 1.26675 6.40002 0.666748 8.00002 0.666748ZM8.00002 13.2001L11.0667 10.1334C12.7333 8.40008 12.7333 5.66675 11.0667 3.93341C10.2667 3.13341 9.13335 2.66675 8.00002 2.66675C6.86668 2.66675 5.73335 3.13341 4.93335 3.93341C3.26668 5.66675 3.26668 8.40008 4.93335 10.1334L8.00002 13.2001ZM9.33335 7.00008C9.33335 7.3537 9.19287 7.69284 8.94282 7.94289C8.69278 8.19294 8.35364 8.33342 8.00002 8.33342C7.64639 8.33342 7.30726 8.19294 7.05721 7.94289C6.80716 7.69284 6.66668 7.3537 6.66668 7.00008C6.66668 6.64646 6.80716 6.30732 7.05721 6.05727C7.30726 5.80722 7.64639 5.66675 8.00002 5.66675C8.35364 5.66675 8.69278 5.80722 8.94282 6.05727C9.19287 6.30732 9.33335 6.64646 9.33335 7.00008Z" fill="black"/>
</g>
</svg>
