<svg width="153" height="36" viewBox="0 0 153 36" fill="none" xmlns="http://www.w3.org/2000/svg">
<g id="eat-now-high-resolution-logo-transparent 1" clip-path="url(#clip0_4246_4675)">
<g id="Group">
<g id="Group_2">
<path id="Vector" d="M19.3933 1.27686C17.1971 1.27686 15.0225 1.70941 12.9935 2.54984C10.9646 3.39026 9.12103 4.62208 7.56814 6.17498C6.01524 7.72788 4.78341 9.57144 3.94299 11.6004C3.10256 13.6294 2.67001 15.804 2.67001 18.0001C2.67001 20.1962 3.10256 22.3709 3.94299 24.3998C4.78341 26.4288 6.01524 28.2723 7.56814 29.8252C9.12103 31.3781 10.9646 32.6099 12.9935 33.4504C15.0225 34.2908 17.1971 34.7234 19.3933 34.7234C21.5894 34.7234 23.764 34.2908 25.793 33.4504C27.8219 32.6099 29.6655 31.3781 31.2184 29.8252C32.7713 28.2723 34.0031 26.4288 34.8435 24.3998C35.6839 22.3709 36.1165 20.1962 36.1165 18.0001C36.1165 15.804 35.6839 13.6294 34.8435 11.6004C34.0031 9.57144 32.7713 7.72788 31.2184 6.17498C29.6655 4.62208 27.8219 3.39026 25.793 2.54984C23.764 1.70941 21.5894 1.27686 19.3933 1.27686Z" fill="#CA3838"/>
<path id="Vector_2" d="M46.071 7.14038H48.9585C49.9245 7.14038 50.8817 7.15443 51.8302 7.18253C52.7769 7.21064 53.6911 7.25367 54.5728 7.31163L54.4568 9.29283H46.5031C45.9094 9.29283 45.4738 9.44125 45.1963 9.73807C44.9188 10.0349 44.78 10.5188 44.78 11.1897V22.9637C44.78 23.6328 44.9188 24.1211 45.1963 24.4285C45.4738 24.7341 45.9094 24.8869 46.5031 24.8869H54.4568L54.5728 26.8391C53.6911 26.8971 52.7769 26.9357 51.8302 26.955C50.8817 26.9744 49.9245 26.9884 48.9585 26.9972C47.9907 27.0077 47.0282 27.013 46.071 27.013C44.903 27.013 43.9791 26.7012 43.2994 26.0777C42.6197 25.456 42.271 24.619 42.2535 23.567V10.5864C42.271 9.51326 42.6197 8.67107 43.2994 8.05985C43.9791 7.44687 44.903 7.14038 46.071 7.14038ZM42.7699 17.5364V15.4973H53.3372V17.5364H42.7699ZM64.8555 12.6572C65.8883 12.6572 66.7638 12.7959 67.4822 13.0735C68.2006 13.351 68.7415 13.8146 69.1051 14.4645C69.4687 15.1161 69.6505 16.0066 69.6505 17.136V26.9867H67.7272L67.3531 23.9411L67.1819 23.6249V17.136C67.1819 16.2736 66.9851 15.6562 66.5917 15.2839C66.2 14.9098 65.4492 14.7227 64.3392 14.7227C63.6103 14.7227 62.6961 14.7613 61.5966 14.8386C60.4953 14.9159 59.409 15.002 58.3376 15.0968L58.1057 13.2869C58.7574 13.1727 59.4705 13.0673 60.245 12.9707C61.0213 12.8759 61.8117 12.7995 62.6161 12.7415C63.4188 12.6853 64.1653 12.6572 64.8555 12.6572ZM61.3515 18.3716H68.5018L68.4728 20.2079L61.7836 20.2369C61.1127 20.2562 60.6428 20.4336 60.3741 20.7691C60.1071 21.1045 59.9737 21.5682 59.9737 22.1601V23.0506C59.9737 23.7795 60.1458 24.3108 60.49 24.6445C60.8343 24.98 61.3893 25.1477 62.1551 25.1477C62.6908 25.1477 63.2985 25.0476 63.9782 24.8474C64.6579 24.6454 65.3429 24.3336 66.0332 23.9121C66.7217 23.4923 67.3531 22.9566 67.9274 22.305V24.115C67.7167 24.3819 67.4155 24.6928 67.0238 25.0476C66.6304 25.4024 66.1614 25.7466 65.6169 26.0804C65.0707 26.4158 64.4674 26.6933 63.807 26.9129C63.1466 27.1342 62.4335 27.2448 61.6677 27.2448C60.8439 27.2448 60.1168 27.0964 59.4863 26.7996C58.854 26.5028 58.3604 26.0619 58.0056 25.477C57.6526 24.8939 57.4761 24.1808 57.4761 23.3378V21.8176C57.4761 20.7251 57.8151 19.8777 58.493 19.2752C59.1727 18.6728 60.1256 18.3716 61.3515 18.3716ZM75.0777 8.86339H77.5199V23.1349C77.5199 23.8058 77.6631 24.2845 77.9494 24.5707C78.2374 24.8588 78.7257 25.0028 79.4142 25.0028H81.5403L81.8275 26.8681C81.5201 26.9454 81.1653 27.0121 80.7631 27.0683C80.3627 27.1263 79.971 27.1693 79.5881 27.1974C79.2052 27.2273 78.8987 27.2422 78.6686 27.2422C77.5006 27.2422 76.6102 26.9164 75.9972 26.2648C75.3842 25.6149 75.0777 24.677 75.0777 23.4511V8.86339ZM75.3069 12.997H81.9697V14.9229H72.5511V13.1419L75.3069 12.997ZM104.366 7.16936H106.867V25.9776C106.867 26.6486 106.541 26.984 105.889 26.984H103.42C103.132 26.984 102.902 26.9164 102.73 26.7812C102.558 26.6477 102.414 26.4466 102.298 26.1778L95.609 12.1355C95.4368 11.7526 95.2357 11.3223 95.0056 10.8446C94.7755 10.3651 94.6034 9.92425 94.4893 9.52204H94.0282C94.0669 9.94357 94.0958 10.3748 94.1151 10.8156C94.1345 11.2565 94.1441 11.6964 94.1441 12.1355V26.984H91.6176V8.17314C91.6176 7.50395 91.9522 7.16936 92.6214 7.16936H95.0056C95.2919 7.16936 95.5211 7.2361 95.6933 7.36959C95.8671 7.50307 96.0112 7.70418 96.1253 7.97291L102.614 21.6701C102.825 22.0723 103.05 22.5272 103.289 23.0348C103.529 23.5424 103.755 24.0447 103.966 24.5418H104.453C104.434 24.0254 104.415 23.5178 104.395 23.019C104.376 22.5219 104.366 22.0249 104.366 21.5278V7.16936ZM117.521 12.6546C119.13 12.6546 120.417 12.8934 121.383 13.3712C122.351 13.8507 123.045 14.6305 123.467 15.7107C123.889 16.7926 124.099 18.2241 124.099 20.005C124.099 21.786 123.889 23.2166 123.467 24.2968C123.045 25.3787 122.351 26.1594 121.383 26.6389C120.417 27.1166 119.13 27.3555 117.521 27.3555C115.933 27.3555 114.655 27.1166 113.687 26.6389C112.721 26.1594 112.023 25.3787 111.593 24.2968C111.161 23.2166 110.945 21.786 110.945 20.005C110.945 18.2241 111.161 16.7926 111.593 15.7107C112.023 14.6305 112.721 13.8507 113.687 13.3712C114.655 12.8934 115.933 12.6546 117.521 12.6546ZM117.521 14.7201C116.507 14.7201 115.708 14.8781 115.123 15.1943C114.54 15.5104 114.124 16.0514 113.874 16.8172C113.625 17.583 113.5 18.6456 113.5 20.005C113.5 21.3645 113.625 22.4271 113.874 23.1929C114.124 23.9586 114.54 24.4996 115.123 24.8158C115.708 25.1319 116.507 25.29 117.521 25.29C118.536 25.29 119.34 25.1319 119.934 24.8158C120.528 24.4996 120.949 23.9586 121.199 23.1929C121.446 22.4271 121.57 21.3645 121.57 20.005C121.57 18.6456 121.446 17.583 121.199 16.8172C120.949 16.0514 120.528 15.5104 119.934 15.1943C119.34 14.8781 118.536 14.7201 117.521 14.7201ZM146.093 12.997H148.619L144.541 26.2938C144.485 26.5045 144.371 26.6723 144.198 26.797C144.025 26.9217 143.823 26.984 143.595 26.984H141.382C141.154 26.984 140.948 26.912 140.766 26.768C140.583 26.624 140.473 26.4369 140.436 26.2068L138.139 16.7013C138.062 16.3377 137.99 15.9741 137.923 15.6105C137.856 15.247 137.775 14.8737 137.678 14.4909H137.333C137.257 14.8737 137.176 15.247 137.09 15.6105C137.004 15.9741 136.923 16.3377 136.845 16.7013L134.577 26.2068C134.519 26.4369 134.404 26.624 134.232 26.768C134.06 26.912 133.849 26.984 133.6 26.984H131.418C131.188 26.984 130.987 26.9217 130.815 26.797C130.643 26.6723 130.528 26.5045 130.47 26.2938L126.394 12.997H128.921L131.821 23.3062C131.916 23.6522 132.002 24.0017 132.079 24.3547C132.155 24.7095 132.222 25.059 132.28 25.4033H132.654C132.749 25.059 132.839 24.7095 132.925 24.3547C133.011 24.0017 133.093 23.6522 133.17 23.3062L135.496 13.7742C135.535 13.5442 135.635 13.3571 135.797 13.2131C135.96 13.0691 136.167 12.997 136.416 12.997H138.626C138.856 12.997 139.052 13.0691 139.214 13.2131C139.377 13.3571 139.488 13.5538 139.546 13.8032L141.843 23.3062C141.919 23.6522 141.999 23.9973 142.086 24.3415C142.172 24.6858 142.253 25.0397 142.331 25.4033H142.705C142.8 25.0397 142.876 24.6902 142.934 24.3547C142.992 24.021 143.078 23.6715 143.192 23.3062L146.093 12.997Z" fill="#CA3838"/>
<path id="Vector_3" d="M12.4854 11.6191H14.2585C14.8521 11.6191 15.4405 11.6279 16.0236 11.6455C16.6068 11.6631 17.1688 11.6894 17.7098 11.7245L17.6386 12.9417H12.7489C12.3853 12.9417 12.1174 13.033 11.9453 13.2157C11.7749 13.3984 11.6898 13.6961 11.6898 14.1088V21.346C11.6898 21.757 11.7749 22.0565 11.9453 22.2444C12.1174 22.4323 12.3853 22.5263 12.7489 22.5263H17.6386L17.7098 23.7277C17.1688 23.7628 16.6068 23.7865 16.0236 23.7988C15.4405 23.8111 14.8521 23.8199 14.2585 23.8251C13.6648 23.8304 13.0738 23.833 12.4854 23.833C11.767 23.833 11.1989 23.6416 10.7808 23.2587C10.3628 22.8776 10.1485 22.363 10.138 21.7148V13.7373C10.1485 13.0787 10.3628 12.5606 10.7808 12.1829C11.1989 11.8071 11.767 11.6191 12.4854 11.6191ZM10.4542 18.008V16.7566H16.951V18.008H10.4542ZM27.9662 11.6349H29.5021V23.1955C29.5021 23.6082 29.3019 23.8146 28.9015 23.8146H27.3839C27.2065 23.8146 27.0652 23.7733 26.9598 23.6908C26.8526 23.6082 26.7639 23.4844 26.6937 23.3193L22.5811 14.6884C22.4757 14.4531 22.3519 14.1879 22.2096 13.8928C22.0691 13.5995 21.9637 13.329 21.8935 13.0813H21.6116C21.6344 13.3395 21.652 13.6039 21.6643 13.8743C21.6748 14.1466 21.6801 14.4179 21.6801 14.6884V23.8146H20.1283V12.2514C20.1283 11.8404 20.3338 11.6349 20.7448 11.6349H22.2096C22.387 11.6349 22.5284 11.6753 22.6338 11.7561C22.7409 11.8387 22.8296 11.9625 22.8999 12.1276L26.8887 20.5477C27.0186 20.7954 27.1565 21.0746 27.3023 21.3855C27.4498 21.6982 27.5886 22.0073 27.7185 22.3129H28.0189C28.0066 21.995 27.9943 21.6832 27.982 21.3776C27.9715 21.072 27.9662 20.7664 27.9662 20.4608V11.6349Z" fill="white"/>
</g>
</g>
</g>
<defs>
<clipPath id="clip0_4246_4675">
<rect width="153" height="34.6982" fill="white" transform="translate(0 0.650879)"/>
</clipPath>
</defs>
</svg>
