<svg width="16" height="16" viewBox="0 0 16 16" fill="none" xmlns="http://www.w3.org/2000/svg">
<g id="SVG">
<path id="Vector" d="M15.0672 13.6001L12.1344 10.6665C12.8672 9.6001 13.3344 8.3337 13.3344 6.9337C13.3336 3.4665 10.4664 0.600098 6.99998 0.600098C3.53358 0.600098 0.667175 3.4665 0.667175 6.9337C0.667175 10.4001 3.53358 13.2665 7.00078 13.2665C8.40078 13.2665 9.66718 12.8001 10.7336 12.0665L13.6672 15.0001L15.0672 13.6001ZM2.66718 7.0001C2.66718 4.6001 4.60078 2.6665 7.00078 2.6665C9.40078 2.6665 11.3336 4.6001 11.3336 7.0001C11.3336 9.4001 9.40078 11.3337 7.00078 11.3337C4.60078 11.3337 2.66718 9.4001 2.66718 7.0001Z" fill="black"/>
</g>
</svg>
